<svg xmlns="http://www.w3.org/2000/svg" viewBox="0 0 1200 1260" role="img" aria-labelledby="title desc">
  <title id="title">Handmade ceramic bracelet</title>
  <desc id="desc">A market-style illustration of a handmade ceramic bead bracelet with glazed charms.</desc>
  <defs>
    <linearGradient id="paper" x1="0" x2="1" y1="0" y2="1">
      <stop offset="0" stop-color="#fffaf0"/>
      <stop offset=".55" stop-color="#f4eadb"/>
      <stop offset="1" stop-color="#edf4ec"/>
    </linearGradient>
    <linearGradient id="blueGlaze" x1="0" x2="1" y1="0" y2="1">
      <stop offset="0" stop-color="#bee0e7"/>
      <stop offset=".48" stop-color="#6f9cb6"/>
      <stop offset="1" stop-color="#3f718b"/>
    </linearGradient>
    <linearGradient id="pinkGlaze" x1="0" x2="1" y1="0" y2="1">
      <stop offset="0" stop-color="#ffd2da"/>
      <stop offset=".55" stop-color="#d9879c"/>
      <stop offset="1" stop-color="#ad5c72"/>
    </linearGradient>
    <linearGradient id="greenGlaze" x1="0" x2="1" y1="0" y2="1">
      <stop offset="0" stop-color="#dcebd0"/>
      <stop offset=".55" stop-color="#8daa8b"/>
      <stop offset="1" stop-color="#59785b"/>
    </linearGradient>
    <filter id="softShadow" x="-20%" y="-20%" width="140%" height="140%">
      <feDropShadow dx="0" dy="20" stdDeviation="26" flood-color="#513220" flood-opacity=".18"/>
    </filter>
  </defs>
  <rect width="1200" height="1260" fill="url(#paper)"/>
  <circle cx="178" cy="166" r="92" fill="#d9879c" opacity=".18"/>
  <circle cx="995" cy="234" r="116" fill="#8daa8b" opacity=".2"/>
  <circle cx="1034" cy="1042" r="88" fill="#6f9cb6" opacity=".18"/>
  <path d="M0 0h1200v1260H0z" fill="none"/>
  <g opacity=".35" stroke="#c8754c" stroke-width="8" stroke-linecap="round">
    <path d="M128 348c110-44 187-49 298-12"/>
    <path d="M732 944c102 28 199 18 312-30"/>
    <path d="M188 1022c92 52 178 65 278 38"/>
  </g>
  <ellipse cx="600" cy="690" rx="392" ry="352" fill="#342c28" opacity=".09"/>
  <g filter="url(#softShadow)">
    <ellipse cx="600" cy="654" rx="330" ry="286" fill="none" stroke="#76553f" stroke-width="34" opacity=".34"/>
    <g stroke="#f8efe3" stroke-width="10">
      <circle cx="600" cy="332" r="82" fill="#f4eadb"/>
      <circle cx="741" cy="368" r="78" fill="url(#blueGlaze)"/>
      <circle cx="856" cy="464" r="75" fill="#f4eadb"/>
      <circle cx="912" cy="604" r="79" fill="url(#pinkGlaze)"/>
      <circle cx="887" cy="752" r="76" fill="#f4eadb"/>
      <circle cx="785" cy="874" r="82" fill="url(#greenGlaze)"/>
      <circle cx="640" cy="927" r="78" fill="#f4eadb"/>
      <circle cx="491" cy="903" r="80" fill="url(#blueGlaze)"/>
      <circle cx="364" cy="817" r="76" fill="#f4eadb"/>
      <circle cx="295" cy="682" r="81" fill="url(#pinkGlaze)"/>
      <circle cx="314" cy="532" r="76" fill="#f4eadb"/>
      <circle cx="420" cy="412" r="80" fill="url(#greenGlaze)"/>
    </g>
    <g fill="#342c28" opacity=".7">
      <circle cx="574" cy="318" r="8"/>
      <circle cx="626" cy="318" r="8"/>
      <path d="M577 352c18 18 34 18 48 0" fill="none" stroke="#342c28" stroke-width="7" stroke-linecap="round"/>
      <circle cx="835" cy="449" r="7"/>
      <circle cx="878" cy="451" r="7"/>
      <path d="M842 481c16 12 31 12 45-1" fill="none" stroke="#342c28" stroke-width="6" stroke-linecap="round"/>
      <circle cx="865" cy="737" r="7"/>
      <circle cx="910" cy="738" r="7"/>
      <path d="M870 770c17 11 32 11 46-1" fill="none" stroke="#342c28" stroke-width="6" stroke-linecap="round"/>
      <circle cx="618" cy="912" r="8"/>
      <circle cx="663" cy="912" r="8"/>
      <path d="M621 944c18 13 34 13 48 0" fill="none" stroke="#342c28" stroke-width="6" stroke-linecap="round"/>
      <circle cx="341" cy="801" r="7"/>
      <circle cx="386" cy="803" r="7"/>
      <path d="M346 834c17 12 31 12 45-1" fill="none" stroke="#342c28" stroke-width="6" stroke-linecap="round"/>
      <circle cx="291" cy="517" r="7"/>
      <circle cx="334" cy="519" r="7"/>
      <path d="M299 550c16 11 30 11 43-1" fill="none" stroke="#342c28" stroke-width="6" stroke-linecap="round"/>
    </g>
    <g opacity=".65" fill="#fffdf6">
      <ellipse cx="713" cy="334" rx="28" ry="13" transform="rotate(-24 713 334)"/>
      <ellipse cx="882" cy="574" rx="30" ry="14" transform="rotate(-24 882 574)"/>
      <ellipse cx="759" cy="836" rx="28" ry="13" transform="rotate(-24 759 836)"/>
      <ellipse cx="465" cy="868" rx="30" ry="14" transform="rotate(-24 465 868)"/>
      <ellipse cx="272" cy="648" rx="30" ry="14" transform="rotate(-24 272 648)"/>
      <ellipse cx="392" cy="376" rx="28" ry="13" transform="rotate(-24 392 376)"/>
    </g>
  </g>
  <g transform="translate(493 546)" filter="url(#softShadow)">
    <path d="M108 0c56 48 109 112 109 180 0 62-45 101-109 101S0 242 0 180C0 112 52 48 108 0Z" fill="#fffdf6" stroke="#c8754c" stroke-width="9"/>
    <path d="M68 147c24-31 56-31 80 0 19 25 9 69-40 88-49-19-59-63-40-88Z" fill="url(#pinkGlaze)"/>
    <circle cx="78" cy="109" r="9" fill="#342c28"/>
    <circle cx="138" cy="109" r="9" fill="#342c28"/>
    <path d="M84 134c19 18 38 18 52 0" fill="none" stroke="#342c28" stroke-width="7" stroke-linecap="round"/>
  </g>
  <text x="600" y="1132" text-anchor="middle" fill="#8f4d34" font-family="Arial, sans-serif" font-size="44" font-weight="700">Handmade Ceramic Bracelet</text>
</svg>
